#Comment line ignore any data following # character 
#Hierarchical Translation and Rotation (.htr) file 
[Header]	
#Header keywords are followed by a single value 
FileType HTR		#Single word string
DataType HTRS		#Translation followed by rotation and scale data
FileVersion 1		#integer
NumSegments 64		#integer
NumFrames 3		#integer
DataFrameRate 30		#integer, data frame rate in this file
EulerRotationOrder ZYX
CalibrationUnits mm
RotationUnits Degrees
GlobalAxisofGravity Y
BoneLengthAxis Y
ScaleFactor 1.00
[SegmentNames&Hierarchy]
#CHILD	PARENT
Pinger_Root GLOBAL
Pelvis Pinger_Root
L_Hip Pelvis
R_Hip Pelvis
Rear_Leg01 Pelvis
Spine1 Pelvis
L_Leg01 L_Hip
L_Leg02 L_Leg01
L_Leg03 L_Leg02
L_Foot L_Leg03
L_Toe1_01 L_Foot
L_Toe2_01 L_Foot
L_Toe3_01 L_Foot
planeAlignerLeft L_Foot
L_Toe1_02 L_Toe1_01
L_Toe1_03 L_Toe1_02
L_Toe2_02 L_Toe2_01
L_Toe2_03 L_Toe2_02
L_Toe3_02 L_Toe3_01
L_Toe3_03 L_Toe3_02
planeLockWeightLeft planeAlignerLeft
R_Leg01 R_Hip
R_Leg02 R_Leg01
R_Leg03 R_Leg02
R_Foot R_Leg03
planeAlignerRight R_Foot
R_Toe1_01 R_Foot
R_Toe2_01 R_Foot
R_Toe3_01 R_Foot
planeLockWeightRight planeAlignerRight
R_Toe1_02 R_Toe1_01
R_Toe1_03 R_Toe1_02
R_Toe2_02 R_Toe2_01
R_Toe2_03 R_Toe2_02
R_Toe3_02 R_Toe3_01
R_Toe3_03 R_Toe3_02
Rear_Leg02 Rear_Leg01
Rear_Leg03 Rear_Leg02
Rear_Leg04 Rear_Leg03
Rear_Foot Rear_Leg04
planeAlignerCenter Rear_Foot
Rear_Toe1_01 Rear_Foot
Rear_Toe2_01 Rear_Foot
Rear_Toe3_01 Rear_Foot
planeLockWeightCenter planeAlignerCenter
Rear_Toe1_02 Rear_Toe1_01
Rear_Toe1_03 Rear_Toe1_02
Rear_Toe2_02 Rear_Toe2_01
Rear_Toe2_03 Rear_Toe2_02
Rear_Toe3_02 Rear_Toe3_01
Rear_Toe3_03 Rear_Toe3_02
Back_Bone Spine1
Head Spine1
Motor_Bone Back_Bone
Ping_Mechanism Back_Bone
BN_LookIK Head
bottomMouth Head
L_Mouth01 Head
L_mouthFront Head
mouthGun Head
R_Mouth01 Head
R_mouthFront Head
TopMouth Head
weapon_bone Head
[BasePosition]
#SegmentName Tx, Ty, Tz, Rx, Ry, Rz, BoneLength
Pinger_Root 0.000000 0.000000 0.000000 -90.000000 0.000000 0.000000 10.000000 
Pelvis 0.000000 0.000000 0.000000 0.000000 0.000000 0.000000 10.000000 
L_Hip 0.000000 0.000000 0.000000 0.000000 0.000000 0.000000 10.000000 
R_Hip 0.000000 0.000000 0.000000 0.000000 0.000000 0.000000 10.000000 
Rear_Leg01 0.000000 0.000000 0.000000 0.000000 0.000000 0.000000 10.000000 
Spine1 0.000000 0.000000 0.000000 0.000000 0.000000 0.000000 10.000000 
L_Leg01 0.000000 0.000000 0.000000 0.000000 0.000000 0.000000 10.000000 
L_Leg02 0.000000 0.000000 0.000000 0.000000 0.000000 0.000000 10.000000 
L_Leg03 0.000000 0.000000 0.000000 0.000000 0.000000 0.000000 10.000000 
L_Foot 0.000000 0.000000 0.000000 0.000000 0.000000 0.000000 10.000000 
L_Toe1_01 0.000000 0.000000 0.000000 0.000000 0.000000 0.000000 10.000000 
L_Toe2_01 0.000000 0.000000 0.000000 0.000000 0.000000 0.000000 10.000000 
L_Toe3_01 0.000000 0.000000 0.000000 0.000000 0.000000 0.000000 10.000000 
planeAlignerLeft 0.000000 0.000000 0.000000 0.000000 0.000000 0.000000 10.000000 
L_Toe1_02 0.000000 0.000000 0.000000 0.000000 0.000000 0.000000 10.000000 
L_Toe1_03 0.000000 0.000000 0.000000 0.000000 0.000000 0.000000 10.000000 
L_Toe2_02 0.000000 0.000000 0.000000 0.000000 0.000000 0.000000 10.000000 
L_Toe2_03 0.000000 0.000000 0.000000 0.000000 0.000000 0.000000 10.000000 
L_Toe3_02 0.000000 0.000000 0.000000 0.000000 0.000000 0.000000 10.000000 
L_Toe3_03 0.000000 0.000000 0.000000 0.000000 0.000000 0.000000 10.000000 
planeLockWeightLeft 0.000000 0.000000 0.000000 0.000000 0.000000 0.000000 10.000000 
R_Leg01 0.000000 0.000000 0.000000 0.000000 0.000000 0.000000 10.000000 
R_Leg02 0.000000 0.000000 0.000000 0.000000 0.000000 0.000000 10.000000 
R_Leg03 0.000000 0.000000 0.000000 0.000000 0.000000 0.000000 10.000000 
R_Foot 0.000000 0.000000 0.000000 0.000000 0.000000 0.000000 10.000000 
planeAlignerRight 0.000000 0.000000 0.000000 0.000000 0.000000 0.000000 10.000000 
R_Toe1_01 0.000000 0.000000 0.000000 0.000000 0.000000 0.000000 10.000000 
R_Toe2_01 0.000000 0.000000 0.000000 0.000000 0.000000 0.000000 10.000000 
R_Toe3_01 0.000000 0.000000 0.000000 0.000000 0.000000 0.000000 10.000000 
planeLockWeightRight 0.000000 0.000000 0.000000 0.000000 0.000000 0.000000 10.000000 
R_Toe1_02 0.000000 0.000000 0.000000 0.000000 0.000000 0.000000 10.000000 
R_Toe1_03 0.000000 0.000000 0.000000 0.000000 0.000000 0.000000 10.000000 
R_Toe2_02 0.000000 0.000000 0.000000 0.000000 0.000000 0.000000 10.000000 
R_Toe2_03 0.000000 0.000000 0.000000 0.000000 0.000000 0.000000 10.000000 
R_Toe3_02 0.000000 0.000000 0.000000 0.000000 0.000000 0.000000 10.000000 
R_Toe3_03 0.000000 0.000000 0.000000 0.000000 0.000000 0.000000 10.000000 
Rear_Leg02 0.000000 0.000000 0.000000 0.000000 0.000000 0.000000 10.000000 
Rear_Leg03 0.000000 0.000000 0.000000 0.000000 0.000000 0.000000 10.000000 
Rear_Leg04 0.000000 0.000000 0.000000 0.000000 0.000000 0.000000 10.000000 
Rear_Foot 0.000000 0.000000 0.000000 0.000000 0.000000 0.000000 10.000000 
planeAlignerCenter 0.000000 0.000000 0.000000 0.000000 0.000000 0.000000 10.000000 
Rear_Toe1_01 0.000000 0.000000 0.000000 0.000000 0.000000 0.000000 10.000000 
Rear_Toe2_01 0.000000 0.000000 0.000000 0.000000 0.000000 0.000000 10.000000 
Rear_Toe3_01 0.000000 0.000000 0.000000 0.000000 0.000000 0.000000 10.000000 
planeLockWeightCenter 0.000000 0.000000 0.000000 0.000000 0.000000 0.000000 10.000000 
Rear_Toe1_02 0.000000 0.000000 0.000000 0.000000 0.000000 0.000000 10.000000 
Rear_Toe1_03 0.000000 0.000000 0.000000 0.000000 0.000000 0.000000 10.000000 
Rear_Toe2_02 0.000000 0.000000 0.000000 0.000000 0.000000 0.000000 10.000000 
Rear_Toe2_03 0.000000 0.000000 0.000000 0.000000 0.000000 0.000000 10.000000 
Rear_Toe3_02 0.000000 0.000000 0.000000 0.000000 0.000000 0.000000 10.000000 
Rear_Toe3_03 0.000000 0.000000 0.000000 0.000000 0.000000 0.000000 10.000000 
Back_Bone 0.000000 0.000000 0.000000 0.000000 0.000000 0.000000 10.000000 
Head 0.000000 0.000000 0.000000 0.000000 0.000000 0.000000 10.000000 
Motor_Bone 0.000000 0.000000 0.000000 0.000000 0.000000 0.000000 10.000000 
Ping_Mechanism 0.000000 0.000000 0.000000 0.000000 0.000000 0.000000 10.000000 
BN_LookIK 0.000000 0.000000 0.000000 0.000000 0.000000 0.000000 10.000000 
bottomMouth 0.000000 0.000000 0.000000 0.000000 0.000000 0.000000 10.000000 
L_Mouth01 0.000000 0.000000 0.000000 0.000000 0.000000 0.000000 10.000000 
L_mouthFront 0.000000 0.000000 0.000000 0.000000 0.000000 0.000000 10.000000 
mouthGun 0.000000 0.000000 0.000000 0.000000 0.000000 0.000000 10.000000 
R_Mouth01 0.000000 0.000000 0.000000 0.000000 0.000000 0.000000 10.000000 
R_mouthFront 0.000000 0.000000 0.000000 0.000000 0.000000 0.000000 10.000000 
TopMouth 0.000000 0.000000 0.000000 0.000000 0.000000 0.000000 10.000000 
weapon_bone 0.000000 0.000000 0.000000 0.000000 0.000000 0.000000 10.000000 
#Beginning of Data. Separated by tabs
#Fr	Tx	Ty	Tz	Rx	Ry	Rz	SF
[Pinger_Root]
20 0.000000 0.000000 0.000000 -0.000075 -0.000000 -0.000020 0.000000
21 0.000000 0.000000 0.000000 -0.000075 -0.000000 -0.000020 0.000000
22 0.000000 0.000000 0.000000 -0.000075 -0.000000 -0.000020 0.000000
[Pelvis]
20 -262.897186 -776.438721 3532.100342 -138.996231 -74.378372 127.355217 3625.976563
21 -262.327515 -762.922913 3518.760254 -140.991745 -73.735939 129.339844 3610.061035
22 -262.042633 -756.392334 3500.067627 -141.694733 -73.625862 130.136948 3590.441406
[L_Hip]
20 5.766392 125.831482 872.656799 -154.058868 -57.156254 66.525391 881.701050
21 5.766392 125.831482 872.656799 -154.058853 -57.156227 66.525368 881.701050
22 5.766392 125.831482 872.656799 -154.058868 -57.156254 66.525391 881.701050
[R_Hip]
20 5.765438 125.836372 -872.654907 -2.520501 82.413048 74.352089 881.699829
21 5.765438 125.836372 -872.654907 -2.520474 82.413025 74.352097 881.699829
22 5.765438 125.836372 -872.654907 -2.520501 82.413048 74.352089 881.699829
[Rear_Leg01]
20 -192.298416 -925.602966 -0.001907 119.257942 -5.465368 -145.440567 945.367432
21 -192.298416 -925.602966 -0.001907 118.658310 -6.080863 -145.225464 945.367432
22 -192.298416 -925.602966 -0.001907 118.469139 -6.285742 -144.824539 945.367432
[Spine1]
20 290.604584 5.007505 0.000477 15.580441 2.693261 18.371548 290.647736
21 290.604584 5.007505 0.000477 15.895926 3.665807 17.679657 290.647736
22 290.604584 5.007505 0.000477 15.858200 4.104599 17.105244 290.647736
[L_Leg01]
20 761.932007 -0.002384 -0.069261 18.537975 -37.825710 -11.467519 761.932068
21 761.932007 -0.002384 -0.069261 18.561359 -37.872646 -9.849454 761.932068
22 761.932007 -0.002384 -0.069261 18.362617 -38.111355 -8.889142 761.932068
[L_Leg02]
20 1441.140503 -0.000954 -0.000715 -1.443974 0.525788 -100.743179 1441.140503
21 1441.140503 -0.000954 -0.000715 -1.412836 0.505416 -102.409401 1441.140503
22 1441.140503 -0.000954 -0.000715 -1.378824 0.490708 -103.501289 1441.140503
[L_Leg03]
20 1686.963989 -0.000715 -0.000954 0.036500 -0.010460 100.740784 1686.963989
21 1686.963989 -0.000715 -0.000954 0.033302 -0.006844 101.419800 1686.963989
22 1686.963989 -0.000715 -0.000954 0.032004 -0.007976 101.734009 1686.963989
[L_Foot]
20 3041.570068 -30.715107 11.297464 -0.607353 2.598119 22.447479 3041.746094
21 3041.570068 -30.715107 11.297464 -0.769188 2.598093 22.427238 3041.746094
22 3041.570068 -30.715107 11.297464 -0.931022 2.598008 22.406990 3041.746094
[L_Toe1_01]
20 -188.216690 -224.732346 -21.137953 94.280670 -28.131250 179.902283 293.899567
21 -188.216690 -224.732346 -21.137953 94.280678 -28.131254 179.902283 293.899567
22 -188.216690 -224.732346 -21.137953 94.280670 -28.131250 179.902283 293.899567
[L_Toe2_01]
20 200.746536 -219.926590 148.838394 -108.981339 -14.927537 -28.370436 332.896027
21 200.746536 -219.926590 148.838394 -108.981331 -14.927465 -28.370535 332.896027
22 200.746536 -219.926590 148.838394 -108.981323 -14.927396 -28.370634 332.896027
[L_Toe3_01]
20 188.832520 -219.859131 -191.078659 -119.528816 36.514465 -78.862701 347.140900
21 188.832520 -219.859131 -191.078659 -119.528816 36.514465 -78.862701 347.140900
22 188.832520 -219.859131 -191.078659 -119.528816 36.514465 -78.862701 347.140900
[planeAlignerLeft]
20 0.812531 -811.448792 -0.314951 0.000000 -90.000000 -90.001900 811.449280
21 0.812531 -811.448792 -0.314951 0.000000 -90.000000 -90.001900 811.449280
22 0.812531 -811.448792 -0.314951 0.000000 -90.000000 -90.001900 811.449280
[L_Toe1_02]
20 413.761139 0.000477 0.000000 0.001661 0.070897 0.001661 413.761139
21 413.761139 0.000477 0.000000 0.001661 0.070897 0.001661 413.761139
22 413.761139 0.000477 0.000000 0.001661 0.070897 0.001661 413.761139
[L_Toe1_03]
20 464.317322 0.000358 -0.000089 0.001673 -0.448396 -0.003292 464.317322
21 464.317322 0.000358 -0.000089 0.001673 -0.448396 -0.003292 464.317322
22 464.317322 0.000358 -0.000089 0.001673 -0.448396 -0.003292 464.317322
[L_Toe2_02]
20 342.235809 -0.000477 0.000238 0.004684 -81.231506 0.004684 342.235809
21 342.235809 -0.000477 0.000238 0.004684 -81.231827 0.004684 342.235809
22 342.235809 -0.000477 0.000238 0.004684 -81.232094 0.004684 342.235809
[L_Toe2_03]
20 420.210846 -0.000715 0.000000 179.993195 44.163803 -179.999222 420.210846
21 420.210846 -0.000715 0.000000 179.993195 44.163803 -179.999222 420.210846
22 420.210846 -0.000715 0.000000 179.993195 44.163803 -179.999222 420.210846
[L_Toe3_02]
20 329.270111 0.000954 0.000000 0.004675 -84.677483 0.004675 329.270111
21 329.270111 0.000954 0.000000 0.004675 -84.676895 0.004675 329.270111
22 329.270111 0.000954 0.000000 0.004675 -84.676300 0.004675 329.270111
[L_Toe3_03]
20 439.137451 -0.001907 0.000954 179.993454 37.691124 -179.998764 439.137451
21 439.137451 -0.001907 0.000954 179.993454 37.691116 -179.998764 439.137451
22 439.137451 -0.001907 0.000954 179.993454 37.691113 -179.998764 439.137451
[planeLockWeightLeft]
20 -0.000954 0.000238 -0.000305 -0.011826 -0.004376 0.005620 0.001029
21 -0.000954 0.000238 -0.000305 -0.011826 -0.004376 0.005620 0.001029
22 -0.000954 0.000238 -0.000305 -0.011826 -0.004376 0.005620 0.001029
[R_Leg01]
20 761.455627 -0.001907 -0.000358 103.449554 -59.813969 71.804031 761.455688
21 761.455627 -0.001907 -0.000358 103.391350 -59.509930 72.638763 761.455688
22 761.455627 -0.001907 -0.000358 103.535248 -59.302109 72.672569 761.455688
[R_Leg02]
20 1441.140625 0.000000 -0.000238 1.192941 -0.499229 -95.405487 1441.140625
21 1441.140625 0.000000 -0.000238 1.196153 -0.495851 -95.378693 1441.140625
22 1441.140625 0.000000 -0.000238 1.201137 -0.488178 -95.762566 1441.140625
[R_Leg03]
20 1686.963989 0.000954 0.001431 -0.056591 0.012985 95.027412 1686.963989
21 1686.963989 0.000954 0.001431 -0.056581 0.013028 95.114555 1686.963989
22 1686.963989 0.000954 0.001431 -0.054188 0.013197 95.691406 1686.963989
[R_Foot]
20 3041.560059 -30.531288 -11.204481 1.060910 -24.852022 30.738464 3041.734131
21 3041.560059 -30.531288 -11.204481 1.171032 -24.908701 30.885555 3041.734131
22 3041.560059 -30.531288 -11.204481 1.273695 -24.883438 30.695530 3041.734131
[planeAlignerRight]
20 -0.635147 -812.270569 -0.364304 0.000000 -89.960434 -90.005180 812.270874
21 -0.635147 -812.270569 -0.364304 0.000000 -89.960434 -90.005180 812.270874
22 -0.635147 -812.270569 -0.364304 0.000000 -89.960434 -90.005180 812.270874
[R_Toe1_01]
20 -188.383347 -224.864899 21.052242 77.501526 2.586503 -171.440872 294.101532
21 -188.383347 -224.864899 21.052242 77.501526 2.586503 -171.440872 294.101532
22 -188.383347 -224.864899 21.052242 77.501526 2.586503 -171.440872 294.101532
[R_Toe2_01]
20 200.637817 -220.002121 -148.787384 -87.005188 41.705109 -47.425678 332.857574
21 200.637817 -220.002121 -148.787384 -87.004829 41.707630 -47.424709 332.857574
22 200.637817 -220.002121 -148.787384 -87.004478 41.710155 -47.423744 332.857574
[R_Toe3_01]
20 188.606735 -220.092957 191.126343 -74.776886 -14.743338 -63.952141 347.192566
21 188.606735 -220.092957 191.126343 -74.776886 -14.743338 -63.952141 347.192566
22 188.606735 -220.092957 191.126343 -74.776886 -14.743338 -63.952141 347.192566
[planeLockWeightRight]
20 -0.000477 0.000000 0.000000 -0.011823 -0.004379 -0.000027 0.000477
21 -0.000477 0.000000 0.000000 -0.011823 -0.004379 -0.000027 0.000477
22 -0.000477 0.000000 0.000000 -0.011823 -0.004379 -0.000027 0.000477
[R_Toe1_02]
20 413.762085 0.000477 -0.000119 0.001417 -21.784107 0.001417 413.762085
21 413.762085 0.000477 -0.000119 0.001417 -21.784327 0.001417 413.762085
22 413.762085 0.000477 -0.000119 0.001417 -21.784552 0.001417 413.762085
[R_Toe1_03]
20 464.317810 0.000000 0.001088 0.000898 28.936415 -0.003161 464.317810
21 464.317810 0.000000 0.001088 0.000898 28.936640 -0.003161 464.317810
22 464.317810 0.000000 0.001088 0.000898 28.936861 -0.003161 464.317810
[R_Toe2_02]
20 342.234741 -0.000954 0.000238 -0.002334 -78.761276 -0.002334 342.234741
21 342.234741 -0.000954 0.000238 -0.002334 -78.761276 -0.002334 342.234741
22 342.234741 -0.000954 0.000238 -0.002334 -78.761276 -0.002334 342.234741
[R_Toe2_03]
20 420.210846 0.000715 -0.000268 -179.994690 71.309746 -179.998230 420.210846
21 420.210846 0.000715 -0.000268 -179.994690 71.310020 -179.998230 420.210846
22 420.210846 0.000715 -0.000268 -179.994690 71.310318 -179.998230 420.210846
[R_Toe3_02]
20 329.270355 -0.000477 -0.000954 0.001175 -84.024925 0.001175 329.270355
21 329.270355 -0.000477 -0.000954 0.001175 -84.028671 0.001175 329.270355
22 329.270355 -0.000477 -0.000954 0.001175 -84.032410 0.001175 329.270355
[R_Toe3_03]
20 439.137939 0.000238 0.001431 -179.995331 57.507454 -179.988052 439.137939
21 439.137939 0.000238 0.001431 -179.995331 57.507713 -179.988052 439.137939
22 439.137939 0.000238 0.001431 -179.995331 57.507988 -179.988052 439.137939
[Rear_Leg02]
20 1162.777710 -0.029802 0.005960 -37.590759 40.507130 -145.600983 1162.777710
21 1162.777710 -0.029802 0.005960 -37.560909 40.541882 -145.582764 1162.777710
22 1162.777710 -0.029802 0.005960 -37.868572 40.257339 -146.090118 1162.777710
[Rear_Leg03]
20 607.192505 -0.013351 -0.073195 0.010280 -0.005520 72.823456 607.192505
21 607.192505 -0.013351 -0.073195 0.010277 -0.005525 72.881874 607.192505
22 607.192505 -0.013351 -0.073195 0.010275 -0.005531 72.940277 607.192505
[Rear_Leg04]
20 995.874512 -0.020504 -0.011921 -0.041694 -0.015185 77.339584 995.874573
21 995.874512 -0.020504 -0.011921 -0.041689 -0.015198 77.301575 995.874573
22 995.874512 -0.020504 -0.011921 -0.041746 -0.015042 77.730324 995.874573
[Rear_Foot]
20 3096.176270 -0.067472 -0.041425 94.616089 43.038437 -71.364609 3096.176270
21 3096.176270 -0.067472 -0.041425 94.667046 43.084808 -71.150978 3096.176270
22 3096.176270 -0.067472 -0.041425 94.750771 43.161976 -70.830650 3096.176270
[planeAlignerCenter]
20 0.350077 0.966311 -838.790894 0.000009 0.000003 -179.999985 838.791565
21 0.350077 0.966311 -838.790894 0.000009 0.000003 -179.999985 838.791565
22 0.350077 0.966311 -838.790894 0.000009 0.000003 -179.999985 838.791565
[Rear_Toe1_01]
20 0.653352 83.966492 -371.173737 -30.739967 22.792311 86.619362 380.553192
21 0.653352 83.966492 -371.173737 -30.740280 22.791946 86.618904 380.553192
22 0.653352 83.966492 -371.173737 -30.740599 22.791588 86.618446 380.553192
[Rear_Toe2_01]
20 178.200760 -294.826019 -362.060547 -8.138104 -0.242722 -62.309650 499.765686
21 178.200760 -294.826019 -362.060547 -8.138218 -0.243000 -62.307392 499.765686
22 178.200760 -294.826019 -362.060547 -8.138331 -0.243279 -62.305130 499.765686
[Rear_Toe3_01]
20 -153.359680 -308.780914 -362.060852 3.735244 13.482606 -102.797394 499.952881
21 -153.359680 -308.780914 -362.060852 3.735267 13.483171 -102.794670 499.952881
22 -153.359680 -308.780914 -362.060852 3.735291 13.483735 -102.791931 499.952881
[planeLockWeightCenter]
20 -0.000062 0.000238 0.000000 -0.011814 -0.004373 -0.000015 0.000246
21 -0.000062 0.000238 0.000000 -0.011814 -0.004373 -0.000015 0.000246
22 -0.000062 0.000238 0.000000 -0.011814 -0.004373 -0.000015 0.000246
[Rear_Toe1_02]
20 379.707825 0.194073 0.000477 -0.006719 -30.019583 -0.006719 379.707855
21 379.707825 0.194073 0.000477 -0.006719 -30.019583 -0.006719 379.707855
22 379.707825 0.194073 0.000477 -0.006719 -30.019583 -0.006719 379.707855
[Rear_Toe1_03]
20 500.129700 0.165701 0.000119 -179.994812 70.588554 -179.998367 500.129761
21 500.129700 0.165701 0.000119 -179.994812 70.591232 -179.998367 500.129761
22 500.129700 0.165701 0.000119 -179.994812 70.593872 -179.998367 500.129761
[Rear_Toe2_02]
20 340.494507 0.000238 -0.000954 0.001661 0.064062 0.001661 340.494507
21 340.494507 0.000238 -0.000954 0.001661 0.063916 0.001661 340.494507
22 340.494507 0.000238 -0.000954 0.001661 0.063771 0.001661 340.494507
[Rear_Toe2_03]
20 433.103577 0.000000 0.000238 -0.003297 -0.804494 0.001683 433.103546
21 433.103577 0.000000 0.000238 -0.003297 -0.804494 0.001683 433.103546
22 433.103577 0.000000 0.000238 -0.003297 -0.804494 0.001683 433.103546
[Rear_Toe3_02]
20 340.494141 -0.000358 -0.000477 -0.002600 -36.654480 -0.002600 340.494171
21 340.494141 -0.000358 -0.000477 -0.002600 -36.654480 -0.002600 340.494171
22 340.494141 -0.000358 -0.000477 -0.002600 -36.654480 -0.002600 340.494171
[Rear_Toe3_03]
20 433.103577 0.001431 -0.000238 0.006396 30.714855 -0.001650 433.103546
21 433.103577 0.001431 -0.000238 0.006396 30.714851 -0.001650 433.103546
22 433.103577 0.001431 -0.000238 0.006396 30.714855 -0.001650 433.103546
[Back_Bone]
20 1312.175781 -701.934692 0.000954 10.524904 -16.239204 -89.607376 1488.125488
21 1312.175781 -701.934692 0.000954 10.503857 -16.648731 -87.133339 1488.125488
22 1312.175781 -701.934692 0.000954 10.465431 -17.000826 -86.148720 1488.125488
[Head]
20 1406.159424 809.709290 0.001431 -0.852580 -1.337260 42.862816 1622.625488
21 1406.159424 809.709290 0.001431 -0.809586 -1.364060 41.024460 1622.625488
22 1406.159424 809.709290 0.001431 -0.792753 -1.377553 40.249062 1622.625488
[Motor_Bone]
20 1158.364380 -417.834747 0.000477 -5.761946 -21.651033 -115.433746 1231.419434
21 1158.364380 -417.834747 0.000477 -8.295035 -19.255724 -114.167961 1231.419434
22 1158.364380 -417.834747 0.000477 -10.599420 -16.410860 -112.054893 1231.419434
[Ping_Mechanism]
20 1237.441528 -632.872620 -54.545483 0.000103 -0.000053 82.120995 1390.958130
21 1236.036011 -635.772095 -58.559555 0.000103 -0.000053 82.120995 1391.193970
22 1235.219116 -635.194702 -60.203239 0.000103 -0.000053 82.120995 1390.274414
[BN_LookIK]
20 193.241119 1380.371704 -0.002861 0.000000 89.965736 -31.038179 1393.832153
21 193.241119 1380.371704 -0.002861 0.000000 89.965736 -31.038179 1393.832153
22 193.241119 1380.371704 -0.002861 0.000000 89.965736 -31.038179 1393.832153
[bottomMouth]
20 -435.092926 615.759399 -0.000954 -0.000022 0.000016 73.527184 753.966492
21 -435.092926 615.759399 -0.000954 -0.000022 0.000016 73.527184 753.966492
22 -435.092926 615.759399 -0.000954 -0.000022 0.000016 73.527184 753.966492
[L_Mouth01]
20 554.440979 7.658243 838.222046 150.204178 23.759130 109.605339 1005.027161
21 554.440979 7.658243 838.222046 150.204178 23.759130 109.605339 1005.027161
22 554.440979 7.658243 838.222046 150.204178 23.759130 109.605339 1005.027161
[L_mouthFront]
20 551.629089 934.514771 339.150421 0.000081 2.804060 79.119301 1136.941284
21 551.629089 934.514771 339.150421 0.000081 2.804060 79.119301 1136.941284
22 551.629089 934.514771 339.150421 0.000081 2.804060 79.119301 1136.941284
[mouthGun]
20 55.332661 1627.420898 0.000000 0.000023 0.000009 -11.038128 1628.361328
21 55.332661 1627.420898 0.000000 0.000023 0.000009 -11.038128 1628.361328
22 55.332661 1627.420898 0.000000 0.000023 0.000009 -11.038128 1628.361328
[R_Mouth01]
20 554.442383 7.659197 -838.223938 29.795891 -23.759109 109.605331 1005.029541
21 554.442383 7.659197 -838.223938 29.795891 -23.759109 109.605331 1005.029541
22 554.442383 7.659197 -838.223938 29.795891 -23.759109 109.605331 1005.029541
[R_mouthFront]
20 551.629089 934.514282 -339.151367 0.000029 -2.803930 79.119133 1136.941162
21 551.629089 934.514282 -339.151367 0.000029 -2.803930 79.119133 1136.941162
22 551.629089 934.514282 -339.151367 0.000029 -2.803930 79.119133 1136.941162
[TopMouth]
20 461.269867 -56.106091 -0.008583 -0.000059 -0.000268 92.025169 464.669525
21 461.269867 -56.106091 -0.008583 -0.000059 -0.000268 92.025169 464.669525
22 461.269867 -56.106091 -0.008583 -0.000059 -0.000268 92.025169 464.669525
[weapon_bone]
20 -987.239868 1448.372803 0.001431 0.000000 89.965736 -31.038221 1752.833740
21 -987.239868 1448.372803 0.001431 0.000000 89.965736 -31.038221 1752.833740
22 -987.239868 1448.372803 0.001431 0.000000 89.965736 -31.038221 1752.833740
